<svg xmlns="http://www.w3.org/2000/svg" width="20" height="20" viewBox="0 0 20 20" fill="none">
  <g clip-path="url(#clip0_426_3779)">
    <path d="M10 19.375C4.8225 19.375 0.625 15.1775 0.625 10C0.625 4.8225 4.8225 0.625 10 0.625C15.1775 0.625 19.375 4.8225 19.375 10C19.375 15.1775 15.1775 19.375 10 19.375ZM10 18.125C14.4875 18.125 18.125 14.4875 18.125 10C18.125 5.5125 14.4875 1.875 10 1.875C5.5125 1.875 1.875 5.5125 1.875 10C1.875 14.4875 5.5125 18.125 10 18.125Z" fill="black"/>
    <path d="M10.7812 11.7519V12.19H9.21875V11.7519C9.21875 10.75 9.69125 9.8025 10.3675 9.08188C10.8844 8.53063 10.87 8.54625 11.0175 8.37125C11.4075 7.90688 11.5625 7.575 11.5625 7.1875C11.5625 6.7731 11.3979 6.37567 11.1049 6.08265C10.8118 5.78962 10.4144 5.625 10 5.625C9.5856 5.625 9.18817 5.78962 8.89515 6.08265C8.60212 6.37567 8.4375 6.7731 8.4375 7.1875H6.875C6.875 6.3587 7.20424 5.56384 7.79029 4.97779C8.37634 4.39174 9.1712 4.0625 10 4.0625C10.8288 4.0625 11.6237 4.39174 12.2097 4.97779C12.7958 5.56384 13.125 6.3587 13.125 7.1875C13.125 8.00125 12.8187 8.65625 12.2137 9.37625C12.1119 9.4975 12.0012 9.62188 11.865 9.76875C11.8125 9.825 11.7587 9.88375 11.6862 9.96L11.5075 10.1506C11.0788 10.6069 10.7812 11.2038 10.7812 11.7519ZM10.6613 14.0231C10.8456 14.205 10.9375 14.4269 10.9375 14.6875C10.9375 14.9531 10.8456 15.1756 10.6613 15.3556C10.5748 15.4426 10.4716 15.5113 10.358 15.5576C10.2444 15.6039 10.1227 15.6268 10 15.625C9.74375 15.625 9.5225 15.535 9.33875 15.3556C9.2488 15.2696 9.17778 15.1657 9.13021 15.0507C9.08265 14.9356 9.05959 14.8119 9.0625 14.6875C9.0625 14.4269 9.15438 14.205 9.33875 14.0231C9.42471 13.9352 9.52765 13.8656 9.64132 13.8187C9.755 13.7717 9.87702 13.7483 10 13.75C10.2562 13.75 10.4775 13.8413 10.6613 14.0231Z" fill="black"/>
  </g>
  <defs>
    <clipPath id="clip0_426_3779">
      <rect width="20" height="20" fill="white"/>
    </clipPath>
  </defs>
</svg>