<svg xmlns="http://www.w3.org/2000/svg" width="140" height="140" viewBox="0 0 140 140" fill="none">
  <circle cx="70" cy="70" r="70" fill="#CBCAFF"/>
  <path d="M101.029 113.55C98.6165 109.42 95.8674 107.58 92.1147 107.58H88.5792V91.3473C93.485 88.2142 97.6376 83.9194 100.685 78.8347C101.317 79.4577 102.145 79.8262 103.232 79.8262C104.846 79.8262 107.116 77.0815 108.7 74.5135C110.295 71.929 112 68.1845 112 65.4232C112 60.0874 108.382 58.5341 106.271 58.4267C106.235 37.232 89.6858 20 69.3492 20C49.0126 20 32.4653 37.232 32.4288 58.4283C30.3185 58.5357 26.7001 60.0891 26.7001 65.4249C26.7001 68.1878 28.404 71.9323 30 74.5152C31.586 77.0831 33.8539 79.8279 35.4682 79.8279C36.5549 79.8279 37.3827 79.4577 38.0148 78.8364C41.0791 83.9508 45.2632 88.2654 50.2055 91.4035V103.03C50.2055 105.388 48.2793 107.307 45.9102 107.307H42.0397C37.6067 107.307 33.5785 108.868 30.6984 111.706C27.6242 114.733 26 118.99 26 124.015V140H67.3501H108.7L103.539 120.176C103.023 117.747 102.178 115.518 101.029 113.55Z" fill="#A3A1F7"/>
  <path d="M100.914 65.0291C97.3112 67.4451 93.697 68.8578 89.3135 69.0214C84.889 69.1868 80.638 68.7055 76.7799 66.4385C76.7619 66.4286 76.8552 67.856 77.3004 68.2783C79.2467 70.1182 84.3341 71.5324 88.8813 71.3C95.9264 70.9399 100.128 67.3993 100.719 66.373C100.986 65.9114 101.088 64.9113 100.914 65.0291Z" fill="white"/>
  <path d="M49.6865 69.0212C45.3046 68.8575 41.6888 67.4449 38.086 65.0289C37.9125 64.9126 38.014 65.9128 38.2791 66.3744C38.87 67.4007 43.0719 70.9413 50.117 71.3014C54.6643 71.5338 59.7517 70.1195 61.6979 68.2797C62.0859 67.913 62.1923 66.7983 62.2152 66.5086C62.2168 66.4791 62.1857 66.4595 62.1595 66.4742C58.3178 68.7102 54.0881 69.1849 49.6865 69.0212Z" fill="white"/>
  <path d="M69.4108 62.001C68.9591 60.468 68.5312 60.0402 66.9982 59.5884L65 59L66.9982 58.4108C68.5305 57.9591 68.9591 57.5312 69.4108 55.9982L70 54L70.5892 55.9982C71.0409 57.5312 71.4688 57.9591 73.0018 58.4108L75 59L73.0018 59.5892C71.4695 60.0409 71.0409 60.4688 70.5892 62.0018L70 64L69.4108 62.001Z" fill="white"/>
</svg>