<svg xmlns="http://www.w3.org/2000/svg" width="43" height="38" viewBox="0 0 43 38" fill="none">
    <path
        d="M36.2322 3.71812C40.9832 11.7094 43.3295 20.7234 42.4524 31.1006C42.4487 31.1445 42.4287 31.1848 42.3972 31.2112C38.7994 34.2335 35.3136 36.0677 31.8767 37.2841C31.85 37.2934 31.8213 37.2929 31.7948 37.2827C31.7683 37.2724 31.7453 37.2529 31.729 37.227C30.935 35.9631 30.2135 34.6306 29.5814 33.2313C29.5452 33.1489 29.5783 33.0497 29.653 33.0172C30.7988 32.5233 31.8883 31.9313 32.9363 31.2305C33.0189 31.1751 33.0241 31.0398 32.9479 30.9748C32.7254 30.7859 32.5051 30.5874 32.2942 30.3889C32.2548 30.3522 32.2017 30.345 32.157 30.3696C25.3532 33.964 17.9 33.964 11.0157 30.3696C10.971 30.3468 10.9179 30.3546 10.8795 30.3907C10.6692 30.5892 10.4483 30.7859 10.228 30.9748C10.1517 31.0398 10.1581 31.1751 10.2411 31.2305C11.2891 31.9181 12.3787 32.5233 13.5229 33.0196C13.597 33.0521 13.6323 33.1489 13.5955 33.2313C12.9771 34.6324 12.2556 35.9649 11.4469 37.2288C11.4117 37.2799 11.3538 37.3034 11.2991 37.2841C7.87855 36.0677 4.39277 34.2335 0.794989 31.2112C0.765017 31.1848 0.743457 31.1427 0.740302 31.0987C0.00728452 22.1227 1.50119 13.0341 6.95465 3.71632C6.9678 3.69166 6.98778 3.6724 7.01092 3.66097C9.69427 2.25209 12.569 1.21558 15.5737 0.62363C15.6283 0.614005 15.683 0.64288 15.7114 0.698225C16.0827 1.45019 16.507 2.41451 16.7941 3.20258C19.9612 2.64913 23.1778 2.64913 26.4112 3.20258C26.6983 2.43136 27.1079 1.45019 27.4776 0.698225C27.4907 0.670769 27.5111 0.648773 27.5359 0.635376C27.5606 0.62198 27.5884 0.617869 27.6153 0.62363C30.6216 1.21738 33.4963 2.25389 36.1776 3.66097C36.2012 3.6724 36.2207 3.69166 36.2322 3.71812ZM18.4042 20.7848C18.4374 18.1312 16.7463 15.9355 14.6235 15.9355C12.518 15.9355 10.8432 18.112 10.8432 20.7848C10.8432 23.457 12.5511 25.6335 14.6235 25.6335C16.7295 25.6335 18.4042 23.457 18.4042 20.7848ZM32.3821 20.7848C32.4152 18.1312 30.7241 15.9355 28.6018 15.9355C26.4958 15.9355 24.821 18.112 24.821 20.7848C24.821 23.457 26.529 25.6335 28.6018 25.6335C30.7241 25.6335 32.3821 23.457 32.3821 20.7848Z"
        fill="black" />
</svg>