<svg xmlns="http://www.w3.org/2000/svg" width="140" height="140" viewBox="0 0 140 140" fill="none">
  <circle cx="70" cy="70" r="70" fill="#CBCAFF"/>
  <path d="M103.571 83.4286C101.242 83.4286 99.0796 84.0799 97.1694 85.1273L82.6229 74.4214C83.1096 73.0315 83.4286 71.5577 83.4286 70C83.4286 69.53 83.3379 69.0869 83.2909 68.6269L96.7262 60.5631C98.5791 62.3074 101.027 63.2809 103.571 63.2857C105.563 63.2857 107.511 62.695 109.167 61.5884C110.823 60.4817 112.114 58.9088 112.876 57.0685C113.639 55.2281 113.838 53.2031 113.449 51.2494C113.061 49.2958 112.102 47.5012 110.693 46.0927C109.285 44.6842 107.49 43.725 105.536 43.3364C103.583 42.9478 101.558 43.1472 99.7173 43.9095C97.877 44.6718 96.304 45.9627 95.1973 47.6189C94.0907 49.2751 93.5 51.2223 93.5 53.2143C93.5 53.6843 93.5772 54.1341 93.6376 54.5874L80.9074 62.2249C79.0761 59.6668 76.4034 57.8343 73.3571 57.0481V49.3804C79.1314 47.8798 83.4286 42.6661 83.4286 36.4286C83.4286 29.0227 77.4059 23 70 23C62.5941 23 56.5714 29.0227 56.5714 36.4286C56.5714 42.6661 60.8686 47.8798 66.6429 49.3804V57.0481C63.3676 57.8953 60.5331 59.948 58.7066 62.7956L46.2684 55.3326C46.7065 53.2961 46.5024 51.1737 45.6841 49.258C44.8657 47.3423 43.4735 45.7274 41.6991 44.6359C39.9248 43.5445 37.8556 43.03 35.7767 43.1636C33.6978 43.2971 31.7115 44.072 30.0913 45.3815C28.4712 46.691 27.2969 48.4706 26.7304 50.4753C26.1639 52.48 26.2329 54.611 26.928 56.5748C27.6231 58.5386 28.91 60.2385 30.6115 61.4404C32.313 62.6423 34.3454 63.287 36.4286 63.2857C38.7193 63.2776 40.9374 62.4809 42.7098 61.0297L56.6319 69.3856C56.6251 69.5938 56.5714 69.7885 56.5714 70C56.5714 71.5611 56.8904 73.0349 57.3805 74.4281L42.9951 85.2179C40.9997 84.0592 38.736 83.4423 36.4286 83.4286C29.0227 83.4286 23 89.4513 23 96.8571C23 104.263 29.0227 110.286 36.4286 110.286C43.8344 110.286 49.8571 104.263 49.8571 96.8571C49.8571 94.3191 49.1085 91.9725 47.8831 89.9448L61.1338 80.0076C62.7117 81.4105 64.5997 82.4195 66.6429 82.9519V97.4749C64.6832 98.1625 62.9851 99.441 61.7826 101.134C60.5801 102.827 59.9323 104.852 59.9286 106.929C59.9286 109.6 60.9897 112.161 62.8784 114.05C64.7672 115.939 67.3289 117 70 117C72.6711 117 75.2328 115.939 77.1216 114.05C79.0103 112.161 80.0714 109.6 80.0714 106.929C80.0677 104.852 79.42 102.827 78.2174 101.134C77.0149 99.441 75.3168 98.1625 73.3571 97.4749V82.9519C75.4034 82.4205 77.294 81.4102 78.8729 80.0043L92.1941 89.8071C90.8616 91.9178 90.1507 94.3611 90.1429 96.8571C90.1429 104.263 96.1656 110.286 103.571 110.286C110.977 110.286 117 104.263 117 96.8571C117 89.4513 110.977 83.4286 103.571 83.4286ZM63.2857 36.4286C63.2857 32.7256 66.2971 29.7143 70 29.7143C73.7029 29.7143 76.7143 32.7256 76.7143 36.4286C76.7143 40.1315 73.7029 43.1429 70 43.1429C66.2971 43.1429 63.2857 40.1315 63.2857 36.4286ZM36.4286 103.571C32.7256 103.571 29.7143 100.56 29.7143 96.8571C29.7143 93.1542 32.7256 90.1429 36.4286 90.1429C40.1315 90.1429 43.1429 93.1542 43.1429 96.8571C43.1429 100.56 40.1315 103.571 36.4286 103.571ZM70 76.7143C66.2971 76.7143 63.2857 73.7029 63.2857 70C63.2857 66.2971 66.2971 63.2857 70 63.2857C73.7029 63.2857 76.7143 66.2971 76.7143 70C76.7143 73.7029 73.7029 76.7143 70 76.7143ZM103.571 103.571C99.8685 103.571 96.8571 100.56 96.8571 96.8571C96.8571 93.1542 99.8685 90.1429 103.571 90.1429C107.274 90.1429 110.286 93.1542 110.286 96.8571C110.286 100.56 107.274 103.571 103.571 103.571Z" fill="#A3A1F7"/>
  <circle cx="70" cy="36" r="4" fill="white"/>
  <circle cx="104" cy="97" r="4" fill="white"/>
</svg>