<svg xmlns="http://www.w3.org/2000/svg" width="144" height="140" viewBox="0 0 144 140" fill="none">
  <circle cx="70.5" cy="70" r="70" fill="#CBCAFF"/>
  <path d="M105 41.5L83 53L77.5 65.5L83 70L90.5 65.5L118.5 50L121 41.5H105Z" fill="white"/>
  <path d="M57.5 78.5L52 80.5L25 70L21 65.5L35.5 58L54.5 59.5L60 70L57.5 78.5Z" fill="white"/>
  <path d="M140.308 42.0847C137.776 39.568 134.889 37.4068 131.721 35.6567C127.907 33.5178 123.847 31.8122 119.612 30.5788C115.132 29.2343 110.419 28.7399 105.741 29.1288C99.3771 29.3343 93.159 30.9677 87.5885 33.9067C83.3654 36.229 79.8539 39.5569 77.3981 43.5737C75.2224 47.2627 74.12 51.435 74.1958 55.6685C74.2075 59.8353 75.1524 63.9521 76.9665 67.7411C75.8524 69.5522 74.8666 71.2412 74.1141 72.819C73.2042 74.6802 72.3642 76.5691 71.5943 78.4858C70.6726 81.1526 69.8852 83.8416 69.2319 86.5527C68.5786 83.8249 65.5162 80.0248 64.4779 78.7525C63.4863 77.5691 62.4422 76.4247 61.3573 75.3246C62.0572 72.1079 62.0281 68.7911 61.2756 65.5854C60.564 62.3242 58.9482 59.2964 56.6033 56.8241C53.9843 54.1462 50.6769 52.1739 47.0138 51.0906C42.1957 49.7627 37.1151 49.535 32.1862 50.435C28.5172 50.9128 24.9882 52.0739 21.7917 53.8517C18.7643 55.5018 15.9528 57.4852 13.4154 59.7686C11.298 61.6353 9.47812 63.7798 7.99069 66.1299C6.90574 67.5744 6.3866 69.3356 6.52076 71.1078C6.70158 72.2301 7.79236 73.0134 8.97647 72.8634C10.3356 72.8412 11.9922 72.7134 13.9754 72.4912C16.1861 72.2634 18.4085 72.169 20.6251 72.2245C23.2791 72.3301 25.8632 73.1079 28.0972 74.4746C29.8005 75.408 31.4337 76.4469 32.9853 77.5914C34.5427 78.7525 36.1293 79.8803 37.7334 80.9748C39.2675 82.0304 40.8599 83.0026 42.5165 83.8804C44.0448 84.7194 45.7189 85.2861 47.4629 85.5583C48.4721 85.7083 49.4928 85.8027 50.5136 85.8416C51.7386 85.8861 52.9635 85.6972 54.1126 85.2916C55.4542 84.7916 56.6617 84.0193 57.6533 83.0249C59.0065 81.6582 59.9923 79.997 60.529 78.1858C61.6956 79.3414 62.7105 80.6248 63.5505 82.0137C64.5596 83.6304 65.2362 88.6695 65.6212 91.2529C66.0062 93.8363 66.5253 111.676 66.5253 111.676C66.5253 113.676 64.163 114.837 64.163 114.837C64.163 114.837 39.0867 124.143 35.966 125.582C33.6736 126.587 31.5329 127.871 29.5846 129.399C28.138 130.637 27.8406 131.71 28.7447 132.604C31.1946 134.521 34.0644 135.888 37.1384 136.604C41.5424 137.788 46.0455 138.627 50.5895 139.121C55.915 139.727 61.2814 140.021 66.6478 139.999C72.1542 140.004 77.6548 139.743 83.132 139.21C88.1251 138.754 93.0716 137.943 97.9363 136.782C101.769 135.965 105.432 134.549 108.774 132.593C109.888 131.932 109.719 130.993 108.261 129.754C106.289 128.198 104.114 126.887 101.798 125.854C98.6188 124.354 73.3617 114.787 73.3617 114.787C73.3617 114.787 71.8276 113.57 71.8392 111.626C71.8392 111.626 72.3701 93.703 72.7434 91.2085C73.1167 88.7139 73.595 86.1416 74.19 83.4915C74.7033 81.1526 75.3449 78.8414 76.1207 76.5636C76.7507 74.6191 77.6315 72.7579 78.7339 71.0189C79.9297 73.1134 81.6388 74.9024 83.7212 76.2358C85.2378 77.2025 86.9643 77.8358 88.7668 78.0969C90.3125 78.2969 91.8874 78.1969 93.3924 77.8192C94.6465 77.4914 95.8772 77.1025 97.0847 76.6524C99.1613 75.8524 101.063 74.6968 102.708 73.2523C104.493 71.7245 106.184 70.0911 107.765 68.3744C109.439 66.591 111.067 64.7688 112.647 62.9187C114.234 61.0853 115.943 59.3575 117.78 57.7519C120.149 55.4574 123.106 53.8073 126.367 52.9628C129.102 52.3017 131.879 51.8184 134.679 51.5128C137.21 51.2517 139.304 50.9628 140.973 50.635C142.483 50.5016 143.603 49.2461 143.492 47.8071C143.166 45.6126 142.04 43.5848 140.308 42.0847ZM57.5075 75.3524C55.4892 73.2023 53.1093 71.3801 50.467 69.9689C47.7254 68.23 44.7506 66.8633 41.6182 65.8966C38.9933 65.0854 36.2518 64.641 33.4928 64.5743C31.0837 64.5299 28.6747 64.7076 26.3006 65.1021C26.1665 65.1465 26.0265 65.1521 25.8865 65.1188C25.7932 65.0799 25.869 65.041 26.1198 64.9854C31.8595 62.9354 38.1592 62.8187 43.9748 64.6632C49.5745 66.1966 54.6551 69.1022 58.7032 73.0912L57.5424 75.3357L57.5075 75.3524ZM117.85 45.6404C117.693 45.7126 117.512 45.7459 117.337 45.7293C114.281 45.8737 111.247 46.3015 108.278 46.996C104.883 47.8182 101.629 49.1016 98.613 50.8017C95.0198 52.8351 91.7416 55.324 88.8659 58.2074C86.0194 60.6575 83.6103 63.5465 81.7496 66.741L79.6497 64.2798C83.482 58.2574 88.9126 53.3017 95.3931 49.9072C102.049 46.0737 109.882 44.5292 117.588 45.5293C117.85 45.5293 117.944 45.5515 117.85 45.6015V45.6404Z" fill="#A3A1F7"/>
</svg>