<svg xmlns="http://www.w3.org/2000/svg" width="48" height="48" viewBox="0 0 48 48" fill="none">
  <path d="M6.37991 26.5559L6.51991 26.3359L14.9599 13.1339C14.9877 13.09 15.027 13.0544 15.0734 13.0309C15.1198 13.0075 15.1718 12.997 15.2237 13.0007C15.2756 13.0044 15.3255 13.0221 15.3681 13.0519C15.4108 13.0817 15.4446 13.1225 15.4659 13.1699C16.8759 16.3299 18.0939 20.2599 17.5239 22.7059C17.2799 23.7139 16.6139 25.0759 15.8639 26.3359C15.7664 26.5201 15.6603 26.6997 15.5459 26.8739C15.5194 26.9131 15.4837 26.9452 15.4418 26.9672C15.3999 26.9892 15.3532 27.0004 15.3059 26.9999H6.62591C6.57383 27.0006 6.52254 26.9872 6.47748 26.9611C6.43243 26.9349 6.39531 26.8971 6.37007 26.8515C6.34483 26.806 6.33241 26.7544 6.33414 26.7024C6.33588 26.6503 6.35169 26.5997 6.37991 26.5559Z" fill="white"/>
  <path d="M44 29.01V31.1C43.9998 31.1582 43.9827 31.2151 43.9507 31.2638C43.9188 31.3124 43.8733 31.3507 43.82 31.374C43.166 31.654 40.93 32.68 40 33.974C37.626 37.276 35.814 42 31.76 42H14.85C8.856 42 4 37.126 4 31.114V30.92C4 30.76 4.13 30.63 4.29 30.63H13.716C13.904 30.63 14.04 30.804 14.024 30.986C13.956 31.6 14.07 32.226 14.36 32.796C14.92 33.934 16.08 34.644 17.334 34.644H22V31H17.386C17.3323 30.9989 17.2799 30.9833 17.2343 30.9549C17.1888 30.9265 17.1517 30.8862 17.1272 30.8385C17.1026 30.7908 17.0913 30.7373 17.0947 30.6837C17.098 30.6301 17.1157 30.5784 17.146 30.534C17.196 30.456 17.254 30.376 17.314 30.286C17.75 29.666 18.374 28.704 18.994 27.606C19.416 26.866 19.826 26.076 20.156 25.284C20.224 25.14 20.276 24.994 20.33 24.85C20.42 24.596 20.514 24.36 20.58 24.124C20.646 23.924 20.7 23.714 20.754 23.516C20.91 22.844 20.976 22.13 20.976 21.39C20.976 21.1 20.964 20.796 20.936 20.506C20.9185 20.1882 20.8878 19.8713 20.844 19.556C20.813 19.2722 20.7696 18.99 20.714 18.71C20.6438 18.2842 20.5544 17.8617 20.446 17.444L20.41 17.284C20.33 16.994 20.264 16.716 20.17 16.426C19.9123 15.5384 19.6167 14.6623 19.284 13.8C19.166 13.47 19.034 13.154 18.9 12.836C18.704 12.36 18.504 11.926 18.32 11.516C18.2325 11.3407 18.1478 11.164 18.066 10.986C17.9773 10.7911 17.8853 10.5977 17.79 10.406C17.724 10.264 17.646 10.13 17.594 9.996L17.024 8.944C17.0064 8.91213 16.9984 8.87578 17.0013 8.83946C17.0041 8.80314 17.0175 8.76845 17.0399 8.7397C17.0623 8.71094 17.0926 8.68939 17.1271 8.67771C17.1616 8.66603 17.1988 8.66474 17.234 8.674L20.8 9.64H20.81L20.824 9.644L21.294 9.774L21.81 9.92L22 9.974V7.854C22 6.83 22.82 6 23.834 6C24.34 6 24.8 6.206 25.13 6.544C25.474 6.89321 25.6665 7.36384 25.666 7.854V11L26.046 11.106C26.076 11.116 26.106 11.13 26.134 11.15C26.226 11.22 26.36 11.324 26.53 11.45C26.664 11.556 26.806 11.686 26.98 11.82C27.324 12.096 27.734 12.454 28.184 12.864C28.304 12.966 28.42 13.074 28.526 13.18C29.106 13.72 29.756 14.354 30.376 15.054C30.55 15.25 30.72 15.45 30.894 15.66C31.066 15.874 31.25 16.084 31.41 16.294C31.62 16.574 31.846 16.864 32.044 17.166C32.136 17.31 32.244 17.456 32.334 17.6C32.586 17.984 32.81 18.38 33.024 18.776C33.114 18.96 33.206 19.16 33.286 19.356C33.524 19.886 33.71 20.426 33.83 20.966C33.866 21.084 33.894 21.21 33.906 21.324V21.35C33.946 21.51 33.96 21.68 33.974 21.854C34.0544 22.6524 33.9553 23.4588 33.684 24.214C33.604 24.44 33.524 24.676 33.42 24.9C33.22 25.364 32.984 25.826 32.704 26.26C32.614 26.42 32.506 26.59 32.4 26.75C32.284 26.92 32.164 27.08 32.056 27.236C31.91 27.436 31.754 27.646 31.594 27.834C31.4549 28.0311 31.3046 28.22 31.144 28.4C30.92 28.664 30.706 28.914 30.484 29.154C30.3497 29.3137 30.2082 29.4672 30.06 29.614C29.916 29.774 29.77 29.916 29.636 30.05C29.4515 30.2343 29.2628 30.4144 29.07 30.59L28.704 30.926C28.6492 30.9739 28.5788 31.0002 28.506 31H25.666V34.644H29.24C30.04 34.644 30.8 34.36 31.414 33.84C31.624 33.656 32.54 32.864 33.624 31.666C33.6603 31.6259 33.7076 31.5974 33.76 31.584L43.63 28.73C43.6733 28.718 43.7187 28.7162 43.7628 28.7246C43.8069 28.733 43.8484 28.7515 43.8842 28.7785C43.92 28.8056 43.9491 28.8406 43.9691 28.8807C43.9892 28.9209 43.9998 28.9651 44 29.01Z" fill="white"/>
</svg>