<svg xmlns="http://www.w3.org/2000/svg" width="140" height="140" viewBox="0 0 140 140" fill="none">
  <circle cx="70" cy="70" r="70" fill="#CBCAFF"/>
  <path d="M99.2768 105.589C110.197 95.8293 121.397 86.2893 127.637 72.5293C129.857 67.6193 131.307 62.5493 130.117 57.0393C127.797 46.2793 118.447 39.4193 107.237 40.8493C102.687 41.4293 99.4768 40.5193 96.2168 37.0493C89.7668 30.1793 80.5968 29.1393 72.4868 34.0393C71.5368 34.6193 70.6468 34.9993 69.7668 35.2293C68.8968 34.9993 68.0068 34.6193 67.0568 34.0393C58.9568 29.1393 49.7768 30.1793 43.3268 37.0493C40.0668 40.5293 36.8568 41.4293 32.3068 40.8493C21.0968 39.4193 11.7468 46.2793 9.42678 57.0393C8.23678 62.5493 9.68678 67.6193 11.9068 72.5293C18.1468 86.2893 29.3368 95.8293 40.2668 105.589C41.3468 106.559 43.3168 107.149 42.9768 108.839C42.5968 110.699 40.5368 110.159 39.1468 110.389C32.0968 111.569 24.9068 112.269 18.5168 115.869C13.0768 118.929 12.5168 123.159 16.9168 127.609C20.7968 131.539 25.8068 133.299 30.9568 134.859C43.4868 138.649 56.7868 139.859 69.7768 139.859C82.7668 139.859 96.0768 138.649 108.597 134.859C113.747 133.299 118.757 131.539 122.637 127.609C127.037 123.159 126.467 118.929 121.037 115.869C114.647 112.269 107.467 111.569 100.407 110.389C99.0268 110.159 96.9568 110.699 96.5768 108.839C96.2268 107.159 98.1968 106.559 99.2768 105.589Z" fill="#A3A1F7"/>
  <path d="M55.9767 43.8086C52.7667 59.9486 55.6067 75.3586 61.5067 90.4086C63.7167 74.3486 62.6567 58.7186 55.9767 43.8086Z" fill="#CBCAFF"/>
  <path d="M49.3567 93.6685C44.4467 78.2185 36.7667 64.5685 24.3267 53.9785C28.3667 69.9185 37.5567 82.6185 49.3567 93.6685Z" fill="#CBCAFF"/>
  <path d="M83.5666 43.8086C76.8866 58.7186 75.8266 74.3586 78.0366 90.4086C83.9366 75.3586 86.7766 59.9386 83.5666 43.8086Z" fill="#CBCAFF"/>
  <path d="M115.217 53.9688C102.777 64.5588 95.0868 78.2187 90.1868 93.6687C101.987 82.6187 111.177 69.9187 115.217 53.9688Z" fill="#CBCAFF"/>
  <path d="M80.193 124.714C83.6148 121.716 85.7855 117.31 85.7855 112.377C85.7855 103.329 78.4821 96 69.4893 96C60.4965 96 53.1931 103.34 53.1931 112.377C53.1931 117.299 55.3638 121.705 58.7856 124.714C42.1793 123.962 30 122.017 30 124.972C30 128.54 47.6862 132 69.5 132C91.3138 132 109 128.529 109 124.972C108.979 122.006 96.7993 123.962 80.193 124.714Z" fill="#CBCAFF"/>
  <circle cx="69.5" cy="112.5" r="16.5" fill="white"/>
</svg>