<svg width="214" height="162" viewBox="0 0 214 162" fill="none" xmlns="http://www.w3.org/2000/svg">
<mask id="mask0_461_2887" style="mask-type:alpha" maskUnits="userSpaceOnUse" x="0" y="0" width="214" height="162">
<rect width="214" height="162" rx="20" fill="#FBF5EF"/>
</mask>
<g mask="url(#mask0_461_2887)">
<circle cx="106.5" cy="118.5" r="113.5" fill="#D9393B"/>
<mask id="mask1_461_2887" style="mask-type:alpha" maskUnits="userSpaceOnUse" x="-7" y="5" width="227" height="227">
<circle cx="106.5" cy="118.5" r="113.5" fill="#EC6E45"/>
</mask>
<g mask="url(#mask1_461_2887)">
<path d="M167.088 197.098C162.524 189.286 157.324 185.804 150.225 185.804H143.537V155.098C152.817 149.171 160.673 141.047 166.438 131.429C167.634 132.607 169.2 133.304 171.255 133.304C174.309 133.304 178.602 128.112 181.599 123.254C184.615 118.365 187.842 111.282 187.842 106.058C187.842 95.9648 180.997 93.0264 177.005 92.8233C176.936 52.73 145.631 20.1328 107.16 20.1328C68.6904 20.1328 37.3884 52.73 37.3194 92.8264C33.3274 93.0296 26.4826 95.9679 26.4826 106.062C26.4826 111.288 29.7057 118.372 32.7248 123.257C35.7251 128.115 40.0152 133.307 43.0688 133.307C45.1245 133.307 46.6905 132.607 47.8862 131.432C53.6828 141.106 61.5977 149.268 70.9469 155.204V177.198C70.9469 181.659 67.3033 185.288 62.8217 185.288H55.4999C47.1142 185.288 39.4942 188.242 34.046 193.61C28.2307 199.336 25.1582 207.389 25.1582 216.895V267.941H184.204L171.836 209.633C170.86 205.038 169.262 200.821 167.088 197.098Z" fill="url(#paint0_linear_461_2887)"/>
</g>
<path d="M166.87 77.2603C160.055 81.8306 153.218 84.5028 144.926 84.8125C136.556 85.1252 128.515 84.2149 121.217 79.9263C121.183 79.9077 121.359 82.6078 122.201 83.4067C125.883 86.8871 135.507 89.5624 144.109 89.1227C157.436 88.4415 165.384 81.7439 166.502 79.8025C167.007 78.9293 167.199 77.0374 166.87 77.2603Z" fill="#444936"/>
<path d="M69.9654 84.812C61.6763 84.5024 54.8363 81.8301 48.0211 77.2598C47.6928 77.04 47.8848 78.9319 48.3864 79.8051C49.5042 81.7465 57.4528 88.4441 70.7798 89.1253C79.3816 89.565 89.0053 86.8897 92.687 83.4093C93.4208 82.7157 93.6221 80.6071 93.6654 80.059C93.6685 80.0033 93.6097 79.9661 93.5602 79.994C86.2928 84.2237 78.2917 85.1216 69.9654 84.812Z" fill="#444936"/>
</g>
<path fill-rule="evenodd" clip-rule="evenodd" d="M96 64C102.075 63.9998 107 59.075 107 53H107L107 53C107 59.075 111.925 63.9998 118 64C111.925 64.0002 107 68.925 107 75C107 75 107 75 107 75H107C107 68.925 102.075 64.0002 96 64Z" fill="#D9393B"/>
<defs>
<linearGradient id="paint0_linear_461_2887" x1="106.5" y1="20.1328" x2="107" y2="162" gradientUnits="userSpaceOnUse">
<stop stop-color="white"/>
<stop offset="1" stop-color="#FFB9B9"/>
</linearGradient>
</defs>
</svg>
