<svg width="299" height="137" viewBox="0 0 299 137" fill="none" xmlns="http://www.w3.org/2000/svg">
<mask id="mask0_1899_3408" style="mask-type:alpha" maskUnits="userSpaceOnUse" x="0" y="0" width="299" height="137">
<rect width="299" height="137" rx="20" fill="#FBF5EF"/>
</mask>
<g mask="url(#mask0_1899_3408)">
<path d="M314 68C314 154.709 243.709 225 157 225C70.2913 225 0 154.709 0 68C0 -18.7087 70.2913 -89 157 -89C243.709 -89 314 -18.7087 314 68Z" fill="#10D4FF"/>
<path d="M238.995 202.661C233.047 192.479 226.269 187.94 217.016 187.94H208.298V147.917C220.394 140.192 230.633 129.603 238.148 117.066C239.706 118.602 241.748 119.51 244.427 119.51C248.407 119.51 254.003 112.743 257.91 106.411C261.841 100.039 266.046 90.8062 266.046 83.9978C266.046 70.8415 257.124 67.0115 251.921 66.7467C251.831 14.4881 211.027 -28 160.884 -28C110.741 -28 69.9412 14.4881 69.8512 66.7508C64.6479 67.0156 55.7262 70.8456 55.7262 84.0019C55.7262 90.8143 59.9273 100.047 63.8625 106.415C67.7731 112.747 73.365 119.515 77.3452 119.515C80.0246 119.515 82.0658 118.602 83.6243 117.07C91.1797 129.68 101.496 140.319 113.682 148.056V176.724C113.682 182.538 108.933 187.268 103.092 187.268H93.5482C82.618 187.268 72.686 191.119 65.5847 198.114C58.0047 205.579 54 216.074 54 228.465V295H261.305L245.184 219C243.911 213.01 241.829 207.514 238.995 202.661Z" fill="url(#paint0_linear_1899_3408)"/>
<path d="M238.712 71.0236C229.828 76.9807 220.917 80.4637 210.109 80.8673C199.199 81.275 188.718 80.0884 179.205 74.4986C179.161 74.4744 179.391 77.9937 180.489 79.035C185.287 83.5714 197.831 87.0585 209.043 86.4854C226.414 85.5975 236.774 76.8677 238.231 74.3371C238.889 73.199 239.139 70.733 238.712 71.0236Z" fill="black"/>
<path d="M112.403 80.8667C101.598 80.4631 92.6831 76.9801 83.7999 71.023C83.3721 70.7364 83.6223 73.2024 84.2761 74.3405C85.7331 76.8711 96.0934 85.6009 113.464 86.4888C124.676 87.0619 137.22 83.5748 142.019 79.0384C142.975 78.1344 143.238 75.3859 143.294 74.6715C143.298 74.5989 143.221 74.5504 143.157 74.5867C133.684 80.0999 123.255 81.2703 112.403 80.8667Z" fill="black"/>
</g>
<path fill-rule="evenodd" clip-rule="evenodd" d="M161.499 50C161.499 57.4556 155.456 63.4996 148 63.5C155.456 63.5003 161.499 69.5444 161.499 77C161.5 77 161.5 77 161.5 77C161.5 77 161.5 77 161.501 77C161.501 69.5444 167.544 63.5004 175 63.5C167.544 63.4996 161.501 57.4556 161.501 50C161.5 50 161.5 50 161.5 50C161.5 50 161.5 50 161.499 50Z" fill="#10D4FF"/>
<defs>
<linearGradient id="paint0_linear_1899_3408" x1="160.023" y1="-28" x2="161.5" y2="109.5" gradientUnits="userSpaceOnUse">
<stop stop-color="white"/>
<stop offset="1" stop-color="#B9FFFF"/>
</linearGradient>
</defs>
</svg>
