<svg width="60" height="60" viewBox="0 0 60 60" fill="none" xmlns="http://www.w3.org/2000/svg">
<g id="WeChat">
<rect id="Rectangle" width="60" height="60" rx="30" fill="#1AAD19"/>
<path id="Vector" fill-rule="evenodd" clip-rule="evenodd" d="M46.827 43.3261C49.5253 41.3705 51.25 38.4772 51.25 35.2631C51.25 29.3712 45.5185 24.5955 38.4487 24.5955C31.3789 24.5955 25.6479 29.3712 25.6479 35.2631C25.6479 41.1547 31.3789 45.9302 38.4487 45.9302C39.9096 45.9302 41.3197 45.7218 42.6272 45.3456C42.7492 45.3084 42.8762 45.2895 43.0039 45.2896C43.2491 45.2896 43.4729 45.3643 43.6832 45.4863L46.4856 47.1039C46.5639 47.1492 46.6394 47.1837 46.7323 47.1837C46.7883 47.1837 46.8438 47.1726 46.8956 47.1511C46.9474 47.1297 46.9945 47.0982 47.0341 47.0585C47.0737 47.0188 47.1051 46.9717 47.1265 46.9199C47.148 46.8681 47.1589 46.8126 47.1589 46.7565C47.1589 46.6516 47.1169 46.5458 47.0903 46.4451C47.074 46.3849 46.7285 45.097 46.5136 44.2932C46.4889 44.2032 46.4688 44.1159 46.4688 44.0214C46.4687 43.8853 46.5011 43.7512 46.5634 43.6302C46.6257 43.5092 46.7161 43.405 46.827 43.3261ZM34.1813 33.5565C33.2395 33.5565 32.4752 32.7924 32.4752 31.8495C32.4752 30.9067 33.2395 30.1425 34.1813 30.1425C35.1246 30.1425 35.8884 30.9067 35.8884 31.8495C35.8884 32.7923 35.1246 33.5566 34.1813 33.5566V33.5565ZM42.7156 33.5566C41.7733 33.5566 41.009 32.7923 41.009 31.8495C41.009 30.9067 41.7733 30.1425 42.7156 30.1425C43.6586 30.1425 44.4223 30.9067 44.4223 31.8495C44.4223 32.7923 43.6586 33.5566 42.7156 33.5566ZM24.1112 12.8184C31.7749 12.8184 38.1263 17.4951 39.2831 23.6104C39.0052 23.5961 38.7271 23.5887 38.4489 23.5881C30.7114 23.5881 24.439 28.8155 24.439 35.2628C24.439 36.3502 24.6213 37.4021 24.9552 38.4005C24.6754 38.413 24.3946 38.4204 24.1112 38.4204C22.3584 38.4204 20.6663 38.1696 19.0972 37.7187C18.9508 37.6738 18.7986 37.651 18.6454 37.6511C18.3507 37.6511 18.0831 37.7411 17.8299 37.887L14.467 39.8288C14.3733 39.8828 14.282 39.9242 14.171 39.9242C14.1037 39.9243 14.0371 39.9111 13.975 39.8853C13.9128 39.8596 13.8564 39.8219 13.8088 39.7744C13.7613 39.7268 13.7236 39.6704 13.6978 39.6082C13.6721 39.5461 13.6589 39.4795 13.659 39.4122C13.659 39.2855 13.7094 39.1591 13.7416 39.0379L14.4335 36.4561C14.4629 36.3474 14.4875 36.243 14.4875 36.1296C14.4877 35.9663 14.4487 35.8053 14.374 35.6602C14.2992 35.515 14.1908 35.3898 14.0577 35.295C10.8189 32.9486 8.75 29.4768 8.75 25.6197C8.75 18.5498 15.6272 12.8184 24.1112 12.8184ZM18.9904 23.5713C20.1222 23.5713 21.0388 22.6546 21.0388 21.5229C21.0388 20.3917 20.1222 19.475 18.9904 19.475C17.8598 19.475 16.9426 20.3917 16.9426 21.5229C16.9426 22.6546 17.8597 23.5713 18.9904 23.5713ZM29.2319 23.5713C30.3631 23.5713 31.2802 22.6546 31.2802 21.5229C31.2802 20.3917 30.3632 19.475 29.2319 19.475C28.1002 19.475 27.1836 20.3917 27.1836 21.5229C27.1836 22.6546 28.1002 23.5713 29.2319 23.5713Z" fill="white"/>
</g>
</svg>
