<svg xmlns="http://www.w3.org/2000/svg" width="22" height="18" viewBox="0 0 22 18" fill="none">
    <path
        d="M19.6167 8.91667C19.6167 13.8412 15.6245 17.8333 10.7 17.8333C5.77546 17.8333 1.78333 13.8412 1.78333 8.91667C1.78333 3.99213 5.77546 0 10.7 0C15.6245 0 19.6167 3.99213 19.6167 8.91667Z"
        fill="#030303" />
    <path fill-rule="evenodd" clip-rule="evenodd"
        d="M15.5608 10.4562C16.6362 10.4159 17.5229 10.0688 18.4068 9.47501C18.4493 9.44605 18.4244 9.69184 18.359 9.80528C18.214 10.0575 17.1832 10.9276 15.4548 11.0161C14.3393 11.0733 13.0912 10.7257 12.6137 10.2735C12.5045 10.1697 12.4816 9.81896 12.486 9.82137C13.4325 10.3785 14.4754 10.4968 15.5608 10.4562ZM2.99338 9.4752C3.87724 10.069 4.76431 10.4161 5.83931 10.4564C6.91913 10.4966 7.95678 10.3799 8.89927 9.83041C8.90569 9.82679 8.91332 9.83162 8.91292 9.83886C8.9073 9.91007 8.8812 10.184 8.78602 10.2741C8.30856 10.7263 7.06048 11.0739 5.94492 11.0167C4.21657 10.9282 3.18574 10.0581 3.04077 9.80587C2.97572 9.69243 2.95082 9.44664 2.99338 9.4752Z"
        fill="white" />
</svg>