<svg width="48" height="48" viewBox="0 0 48 48" fill="none" xmlns="http://www.w3.org/2000/svg">
<path d="M36.8002 27.5644V29.2343C36.7752 29.3156 36.7446 29.3967 36.7279 29.4798C36.5565 30.3624 36.46 31.268 36.2014 32.1246C35.4346 34.6521 33.9977 36.7585 31.9832 38.4783C30.4295 39.8058 28.6811 40.7621 26.6822 41.2329C26.025 41.388 25.3511 41.4794 24.6844 41.6004H23.0083C22.9267 41.5753 22.8432 41.5374 22.7599 41.5319C20.9899 41.4222 19.3129 40.9634 17.7397 40.1628C14.7656 38.6546 12.6204 36.4087 11.6406 33.1778C11.4319 32.4873 11.3449 31.7635 11.2002 31.0547V29.4614C11.2633 29.0699 11.3179 28.6749 11.3922 28.2836C11.7092 26.574 12.4722 25.0601 13.4826 23.6625C14.4357 22.347 15.448 21.0732 16.3519 19.7245C17.329 18.2615 17.8018 16.6375 17.5247 14.857C17.4701 14.5053 17.419 14.1536 17.3653 13.8036C17.4013 13.7945 17.4375 13.7871 17.4738 13.7769C19.6551 16.0532 20.0102 18.8476 19.6986 21.8671C19.7785 21.7822 19.8452 21.723 19.8962 21.6547C21.7476 19.1614 22.5429 16.407 21.9394 13.3218C21.5558 11.3593 20.7259 9.59512 19.353 8.12846C18.7568 7.49336 18.0355 6.97371 17.3707 6.40039H18.0568C18.1133 6.42345 18.1663 6.4632 18.2236 6.46869C19.4307 6.57195 20.5646 6.9431 21.6447 7.46477C24.1151 8.65552 26.1177 10.4158 27.7929 12.5631C30.2552 15.7227 31.8563 19.2279 32.1734 23.2637C32.2949 24.8043 32.1371 26.3016 31.7247 27.7786C31.5689 28.338 31.3491 28.8789 31.148 29.4613C31.947 29.1226 32.5544 28.6048 33.0235 27.9337C34.4225 25.9278 34.8136 23.691 34.4966 21.2182C34.5996 21.3372 34.6524 21.3842 34.6884 21.4432C35.5312 22.7689 36.1616 24.183 36.4907 25.7199C36.6215 26.3283 36.6974 26.9506 36.8002 27.5644ZM23.621 24.6234C23.5896 24.6456 23.5551 24.6686 23.5228 24.6908C23.4792 25.3002 23.4467 25.9103 23.3875 26.5195C23.3003 27.4491 23.0769 28.3454 22.6401 29.179C22.1061 30.2 21.2135 30.835 20.2242 31.34C19.1572 31.8882 18.4851 32.6712 18.3979 33.9072C18.3071 35.1783 18.6909 36.2461 19.7199 37.0273C20.6841 37.7582 21.8104 37.9966 23.0044 37.9569C24.9106 37.895 26.3308 36.993 26.9001 35.0933C27.3089 33.7299 27.2422 32.3572 26.9687 30.9847C26.595 29.1033 25.9108 27.3495 24.7399 25.8126C24.411 25.3831 23.9956 25.0185 23.621 24.6234Z" fill="black"/>
</svg>
