<svg width="60" height="60" viewBox="0 0 60 60" fill="none" xmlns="http://www.w3.org/2000/svg">
<g id="Discord">
<rect id="Rectangle" width="60" height="60" rx="30" fill="#7289DA"/>
<path id="Vector" d="M45.0459 19.7226C42.2936 17.5207 38.9908 16.4198 35.5046 16.2363L34.9541 16.7868C38.0734 17.5207 40.8257 18.9886 43.3945 21.007C40.2752 19.3556 36.789 18.2547 33.1193 17.8877C32.0184 17.7042 31.1009 17.7042 30 17.7042C28.8991 17.7042 27.9817 17.7042 26.8807 17.8877C23.211 18.2547 19.7248 19.3556 16.6055 21.007C19.1743 18.9886 21.9266 17.5207 25.0459 16.7868L24.4954 16.2363C21.0092 16.4198 17.7064 17.5207 14.9541 19.7226C11.8349 25.5941 10.1835 32.1996 10 38.9886C12.7523 41.9244 16.6055 43.7593 20.6422 43.7593C20.6422 43.7593 21.9266 42.2914 22.844 41.007C20.4587 40.4565 18.2569 39.1721 16.789 37.1538C18.0734 37.8877 19.3578 38.6216 20.6422 39.1721C22.2936 39.9061 23.945 40.273 25.5963 40.64C27.0642 40.8235 28.5321 41.007 30 41.007C31.4679 41.007 32.9358 40.8235 34.4037 40.64C36.055 40.273 37.7064 39.9061 39.3578 39.1721C40.6422 38.6216 41.9266 37.8877 43.211 37.1538C41.7431 39.1721 39.5413 40.4565 37.156 41.007C38.0734 42.2914 39.3578 43.7593 39.3578 43.7593C43.3945 43.7593 47.2477 41.9244 50 38.9886C49.8165 32.1996 48.1651 25.5941 45.0459 19.7226ZM23.945 35.6859C22.1101 35.6859 20.4587 34.0345 20.4587 32.0161C20.4587 29.9978 22.1101 28.3464 23.945 28.3464C25.7798 28.3464 27.4312 29.9978 27.4312 32.0161C27.4312 34.0345 25.7798 35.6859 23.945 35.6859ZM36.055 35.6859C34.2202 35.6859 32.5688 34.0345 32.5688 32.0161C32.5688 29.9978 34.2202 28.3464 36.055 28.3464C37.8899 28.3464 39.5413 29.9978 39.5413 32.0161C39.5413 34.0345 37.8899 35.6859 36.055 35.6859Z" fill="white"/>
</g>
</svg>
