<svg width="48" height="48" viewBox="0 0 48 48" fill="none" xmlns="http://www.w3.org/2000/svg">
<path fill-rule="evenodd" clip-rule="evenodd" d="M26.7071 0H23.374V1.66667H26.7071V0ZM23.374 3.33331H26.7071V4.99998H23.374V3.33331ZM26.7071 6.6665H23.374V10.0916C22.8266 10.0311 22.2702 10 21.7066 10C18.0778 10 14.75 11.2888 12.1558 13.4337C12.9978 13.2386 13.8749 13.1355 14.7762 13.1355C21.1634 13.1355 26.3413 18.3139 26.3413 24.7017C26.3413 31.0895 21.1634 36.2679 14.7762 36.2679C13.5278 36.2679 12.3256 36.0701 11.1992 35.7041C13.9053 38.3612 17.6146 40 21.7066 40C29.9902 40 36.7053 33.2843 36.7053 25C36.7053 18.4692 32.5321 12.9133 26.7071 10.8538V6.6665Z" fill="black"/>
</svg>
