<svg xmlns="http://www.w3.org/2000/svg" width="28" height="30" viewBox="0 0 28 30" fill="none">
    <path
        d="M27.8088 1.03642C27.6606 0.72424 27.4317 0.461671 27.148 0.278487C26.8643 0.0953021 26.5371 -0.00116958 26.2036 1.07016e-05H1.79477C1.46146 1.06983e-05 1.13473 0.0969757 0.851202 0.280041C0.567672 0.463106 0.33854 0.725038 0.189479 1.03649C0.0404188 1.34794 -0.0226801 1.6966 0.00725293 2.0434C0.037186 2.3902 0.158968 2.72145 0.358954 3.00002L9.69173 16.0001V29.2501C9.69174 29.3726 9.7205 29.4933 9.77549 29.6016C9.83047 29.7098 9.91001 29.8023 10.0071 29.871C10.1043 29.9397 10.216 29.9825 10.3327 29.9957C10.4493 30.0088 10.5672 29.9919 10.6762 29.9464L17.8552 26.9464C17.9885 26.8907 18.1027 26.7947 18.1831 26.6705C18.2636 26.5464 18.3066 26.4 18.3066 26.2501V16.0001L27.6394 3.00002C27.8404 2.72195 27.9629 2.39059 27.9928 2.04352C28.0227 1.69645 27.959 1.34756 27.8088 1.03642Z"
        fill="black" />
</svg>