<svg xmlns="http://www.w3.org/2000/svg" width="48" height="48" viewBox="0 0 48 48" fill="none">
    <path
        d="M38.2871 29.0712V22.6389C38.2871 14.5734 32 8 24.2725 8C16.4672 8 9.84915 14.6944 9.84915 22.6389V28.9905C8.70073 29.3333 8 31.0876 8 32.0353V37.7417C8 38.9918 8.97324 40 10.18 40H37.8199C39.0268 40 40 38.9918 40 37.7417V32.0353C40 31.1279 39.2993 29.5753 38.2871 29.0712ZM26.5304 36.5318C26.5304 36.7133 26.3942 36.8544 26.219 36.8544H22.3455C22.1703 36.8544 22.0341 36.7133 22.0341 36.5318V32.7813C22.0341 32.5999 22.1703 32.4587 22.3455 32.4587H26.1995C26.3747 32.4587 26.5109 32.5999 26.5109 32.7813V36.5318H26.5304ZM36.1265 28.7284H11.8735V27.6799H36.1265V28.7284Z"
        fill="black" />
</svg>