<svg xmlns="http://www.w3.org/2000/svg" width="24" height="24" viewBox="0 0 24 24" fill="none">
    <g clip-path="url(#clip0_432_3072)">
        <path d="M24 0H0V24H24V0Z" fill="white" fill-opacity="0.01" />
        <path
            d="M9.8042 16C9.971 17.0368 10.1978 17.9644 10.469 18.7408C10.7642 19.5844 11.093 20.1952 11.4086 20.5768C11.729 20.9644 11.9342 21.0004 12.0002 21.0004C12.0662 21.0004 12.2714 20.9644 12.5918 20.5768C12.9062 20.1964 13.235 19.5844 13.5314 18.7408C13.8026 17.9656 14.0294 17.0368 14.1962 16H9.8042Z"
            fill="black" />
        <path
            d="M16.2192 16C16.0332 17.2672 15.762 18.4204 15.4188 19.402C15.0972 20.3212 14.6952 21.1348 14.208 21.7552C17.3364 21.0496 19.908 18.8788 21.1656 16H16.2192Z"
            fill="black" />
        <path
            d="M8.58127 19.402C8.23807 18.4216 7.96687 17.2684 7.78087 16H2.83447C4.09207 18.8776 6.66367 21.0496 9.79207 21.7552C9.30487 21.1348 8.90287 20.3212 8.58127 19.402Z"
            fill="black" />
        <path
            d="M7.50009 12.0004C7.50009 11.3188 7.52409 10.6504 7.56849 10H2.20089C2.07009 10.6468 2.00049 11.3152 2.00049 12.0004C2.00049 12.6856 2.07009 13.354 2.20089 14.0008H7.56849C7.52409 13.3504 7.50009 12.682 7.50009 12.0004Z"
            fill="black" />
        <path
            d="M9.50049 12.0004C9.50049 12.6892 9.52569 13.3576 9.57369 14.0008H14.4277C14.4757 13.3588 14.5009 12.6892 14.5009 12.0004C14.5009 11.3116 14.4757 10.6432 14.4277 10H9.57369C9.52569 10.6432 9.50049 11.3116 9.50049 12.0004Z"
            fill="black" />
        <path
            d="M21.7992 10H16.4316C16.476 10.6492 16.5 11.3176 16.5 12.0004C16.5 12.6832 16.476 13.3504 16.4316 14.0008H21.7992C21.93 13.354 21.9996 12.6856 21.9996 12.0004C21.9996 11.3152 21.9312 10.6468 21.7992 10Z"
            fill="black" />
        <path
            d="M12.5918 3.4236C12.2714 3.036 12.0662 3 12.0002 3C11.9342 3 11.729 3.036 11.4086 3.4236C11.0942 3.804 10.7654 4.416 10.469 5.2596C10.1978 6.0348 9.971 6.9636 9.8042 8.0004H14.195C14.0282 6.9636 13.8014 6.036 13.5302 5.2596C13.2362 4.416 12.9074 3.804 12.5918 3.4236Z"
            fill="black" />
        <path
            d="M15.4188 4.59929C15.762 5.57969 16.0332 6.73289 16.2192 8.00129H21.1656C19.908 5.12369 17.3364 2.95169 14.208 2.24609C14.6952 2.86649 15.0972 3.68009 15.4188 4.59929Z"
            fill="black" />
        <path
            d="M8.58127 4.59929C8.90287 3.68009 9.30487 2.86649 9.79207 2.24609C6.66367 2.95169 4.09207 5.12249 2.83447 8.00129H7.78087C7.96567 6.73289 8.23807 5.57969 8.58127 4.59929Z"
            fill="black" />
    </g>
    <defs>
        <clipPath id="clip0_432_3072">
            <rect width="24" height="24" fill="white" />
        </clipPath>
    </defs>
</svg>