<svg xmlns="http://www.w3.org/2000/svg" width="183" height="37" viewBox="0 0 183 37" fill="none">
  <g clip-path="url(#clip0_432_2707)">
    <path d="M56.4875 27.2498H66.4322C67.423 27.2498 67.798 26.6144 67.798 25.911V23.9007C67.798 23.0657 67.2841 22.562 66.4322 22.562H64.3118C59.5941 22.562 55.4597 21.1552 55.4597 15.5281C55.4597 9.56511 59.0478 8.49414 64.21 8.49414H72.5805V13.1819H62.2933C61.4043 13.1819 60.9275 13.7855 60.9275 14.5206V16.531C60.9275 17.3342 61.3395 17.8697 62.2933 17.8697H64.4137C69.1314 17.8697 73.2658 19.2765 73.2658 24.8718C73.2658 30.8666 69.6777 31.9375 64.5155 31.9375H56.4829V27.2498H56.4875Z" fill="#040000"/>
    <path d="M90.0486 22.5626H82.1549C81.1965 22.5626 80.7891 23.0981 80.7891 23.9013V25.9117C80.7891 26.6468 81.266 27.2504 82.1549 27.2504H92.7801V31.9382H84.5438C79.0761 31.9382 75.3167 30.8672 75.3167 24.9042C75.3167 22.7941 75.3167 17.6343 75.3167 15.5242C75.3167 9.56121 79.0761 8.49023 84.5438 8.49023H92.0949V13.178H82.1502C81.2937 13.178 80.7845 13.7816 80.7845 14.5167V16.5271C80.7845 17.3303 81.1965 17.8658 82.1502 17.8658H90.044V22.5626H90.0486Z" fill="#040000"/>
    <path d="M109.22 22.5626H101.327C100.368 22.5626 99.9609 23.0981 99.9609 23.9013V25.9117C99.9609 26.6468 100.438 27.2504 101.327 27.2504H111.952V31.9382H103.716C98.2479 31.9382 94.4885 30.8672 94.4885 24.9042C94.4885 22.7941 94.4885 17.6343 94.4885 15.5242C94.4885 9.56121 98.2479 8.49023 103.716 8.49023H111.267V13.178H101.322C100.466 13.178 99.9562 13.7816 99.9562 14.5167V16.5271C99.9562 17.3303 100.368 17.8658 101.322 17.8658H109.216V22.5626H109.22Z" fill="#040000"/>
    <path d="M114.35 8.49414H124.943C132.804 8.49414 134.851 13.1819 134.851 20.2158C134.851 27.2498 132.8 31.9375 124.943 31.9375H114.35V8.49414ZM126.651 27.2498C128.29 27.2498 129.388 26.2106 129.388 24.5723V15.8639C129.388 14.2574 128.295 13.1864 126.651 13.1864H119.818V27.2543H126.651V27.2498Z" fill="#040000"/>
    <path d="M143.874 8.49414H149.647L158.328 31.9421H152.555L151.221 28.3253H142.305L140.971 31.9421H135.198L143.874 8.49414ZM149.481 23.633L146.781 16.2995L144.05 23.633H149.481Z" fill="#040000"/>
    <path d="M170.463 7.99023C177.537 7.99023 182.25 12.8822 182.25 20.2156C182.25 27.5491 177.532 32.4411 170.463 32.4411C163.388 32.4411 158.671 27.5491 158.671 20.2156C158.671 12.8822 163.388 7.99023 170.463 7.99023ZM174.051 27.7533C175.69 27.7533 176.782 26.6823 176.782 25.0759V15.36C176.782 13.7535 175.69 12.6825 174.051 12.6825H166.875C165.236 12.6825 164.143 13.7535 164.143 15.36V25.0759C164.143 26.6823 165.236 27.7533 166.875 27.7533H174.051Z" fill="#040000"/>
    <path d="M53.1677 2.20953C51.8297 -0.123004 47.862 -0.56773 41.6905 0.920739C38.9775 1.57421 35.9774 2.56804 32.8292 3.84322C28.7041 2.27761 24.204 2.35475 20.1391 4.07466C16.0325 5.81272 12.8565 9.01202 11.2037 13.0872C10.3703 15.1429 9.97678 17.2939 10.0138 19.4404C8.20822 20.8744 6.58318 22.3039 5.18499 23.697C0.735805 28.1397 -0.898495 31.7112 0.46728 34.0301C1.83306 36.349 5.80538 36.7484 11.9583 35.1918C17.051 33.903 23.1484 31.398 29.3245 28.0762C29.7273 27.8584 30.2041 27.8221 30.6301 27.9855C31.1995 28.2033 31.7458 28.589 32.3616 29.1608L33.4635 30.4723L32.857 28.8794C32.3755 26.9281 32.6672 25.8617 34.0792 24.405L35.4172 23.3249L33.7968 23.9239C31.806 24.3959 30.718 24.11 29.2319 22.7259L28.13 21.4144L28.7365 23.0073C28.9912 24.0419 29.0282 24.827 28.7967 25.5576C28.681 25.9207 28.4124 26.2156 28.0698 26.3972C24.7364 28.1806 21.4354 29.7144 18.3196 30.9352C16.1668 29.4558 14.3936 27.3955 13.2778 24.8542C10.0647 17.5526 13.5 9.08009 20.9493 5.93071C17.227 7.5054 15.5093 11.7394 17.1159 15.3925C18.7224 19.041 23.0419 20.7246 26.7689 19.1499C30.5467 17.5526 34.945 19.3088 36.4913 23.0753C38.0238 26.8056 35.9867 31.0577 32.1718 32.5416C29.343 33.6398 26.3568 33.8168 23.579 33.2042C22.5928 33.6398 21.6206 34.0528 20.6669 34.4385C22.6438 35.1964 24.7086 35.5776 26.7735 35.5776C29.0236 35.5776 31.2736 35.1283 33.4033 34.2252C40.5053 31.2211 44.4128 23.9421 43.3434 16.772C45.2092 15.3335 46.8851 13.8949 48.325 12.4881C52.8297 8.09988 54.5057 4.54207 53.1677 2.20953ZM16.0556 31.7792C14.4445 32.3465 12.8935 32.823 11.4305 33.1951C5.63871 34.6609 2.91179 34.0573 2.2914 33C1.67101 31.9426 2.49974 29.3242 6.68966 25.1447C7.74987 24.0873 8.94435 23.0118 10.2546 21.9227C10.4768 23.1888 10.8564 24.4413 11.3889 25.6529C12.4537 28.0671 14.051 30.1501 16.0556 31.7792ZM42.8434 14.5257C42.6535 13.8949 42.4267 13.2687 42.1535 12.647C41.0887 10.2327 39.4914 8.14526 37.4821 6.51611C35.0422 7.37833 32.4542 8.45384 29.7967 9.71541C29.1254 10.0331 28.5884 10.5731 28.2874 11.2402C27.7365 12.4654 27.7365 13.7452 28.1763 15.5241L29.0745 17.8748L27.4494 15.9416C25.2596 13.8995 23.6531 13.4774 20.7178 14.1717L18.3196 15.0521L20.2919 13.4593C22.3752 11.3128 22.8058 9.7381 22.0975 6.861L21.1993 4.50577L22.8243 6.43896C24.0929 7.62339 25.1623 8.25871 26.4124 8.45384C27.042 8.54914 27.6856 8.42661 28.2597 8.15433C30.7042 6.97445 33.1024 5.93978 35.3987 5.07756C35.3941 5.07302 35.3895 5.07302 35.3848 5.06848C37.7923 4.16088 40.084 3.4348 42.1906 2.92654C48.0009 1.52429 50.7186 2.15962 51.3297 3.22151C51.9408 4.28341 51.0797 6.89277 46.8388 11.0269C45.6629 12.175 44.3202 13.3504 42.8434 14.5257Z" fill="black"/>
  </g>
  <defs>
    <clipPath id="clip0_432_2707">
      <rect width="182.25" height="36.0636" fill="white" transform="translate(0 0.0585938)"/>
    </clipPath>
  </defs>
</svg>