<svg xmlns="http://www.w3.org/2000/svg" width="41" height="42" viewBox="0 0 41 42" fill="none">
  <path fill-rule="evenodd" clip-rule="evenodd" d="M40.4335 28.8788V26.5462C40.4333 26.4961 40.4228 26.4467 40.4027 26.4019C40.3826 26.3571 40.3536 26.3181 40.3178 26.2879C40.282 26.2577 40.2405 26.2371 40.1964 26.2277C40.1524 26.2183 40.107 26.2203 40.0638 26.2337L30.2 29.419C30.1477 29.434 30.1004 29.4658 30.0641 29.5105C29.0194 30.8 28.1308 31.668 27.8806 31.9124L27.8555 31.9369C27.2419 32.5172 26.4824 32.8342 25.6829 32.8342H22.1112V28.7672H24.9494C25.0221 28.7674 25.0925 28.738 25.1473 28.6846L25.513 28.3096C25.7057 28.1136 25.8943 27.9127 26.0787 27.7069L26.146 27.632C26.2608 27.5045 26.3823 27.3694 26.5024 27.2203C26.6505 27.0565 26.7919 26.8852 26.9261 26.7069C27.148 26.4391 27.3618 26.1601 27.5857 25.8654C27.7462 25.6646 27.8964 25.4536 28.0354 25.2337C28.1953 25.0239 28.3512 24.7895 28.4971 24.5663C28.5456 24.4881 28.5964 24.4091 28.6483 24.3286C28.7119 24.2296 28.777 24.1284 28.8409 24.0239C28.9468 23.8453 29.0548 23.6556 29.1447 23.477C29.4245 22.9926 29.6604 22.477 29.8603 21.9591C29.9526 21.7369 30.0261 21.5041 30.0974 21.278L30.1241 21.1935C30.3952 20.3506 30.4942 19.4507 30.4139 18.5595C30.3999 18.3654 30.3859 18.1756 30.3459 17.997V17.968C30.334 17.8408 30.306 17.7002 30.27 17.5685C30.1501 16.9658 29.9642 16.3631 29.7263 15.7716C29.6464 15.5528 29.5545 15.3296 29.4645 15.1243C29.2506 14.6823 29.0268 14.2403 28.7749 13.8118C28.7271 13.7263 28.6742 13.6401 28.6213 13.554C28.5747 13.4783 28.5282 13.4026 28.4851 13.3274C28.324 13.0529 28.1442 12.7872 27.9697 12.5293C27.93 12.4705 27.8905 12.4121 27.8515 12.3542C27.754 12.2112 27.6475 12.0682 27.5403 11.9242C27.4718 11.8322 27.4029 11.7397 27.3359 11.6465C27.162 11.4122 26.9921 11.189 26.8182 10.9702C26.1986 10.189 25.549 9.48135 24.9694 8.87866C24.8634 8.76038 24.7475 8.63983 24.6276 8.526C24.1779 8.06842 23.7681 7.66882 23.4244 7.36084C23.3249 7.27527 23.2359 7.19122 23.1529 7.11279C23.0908 7.05408 23.032 6.99854 22.9746 6.94788C22.8047 6.80725 22.6708 6.69116 22.5789 6.61304C22.5509 6.5907 22.5209 6.57507 22.4909 6.56396L22.1112 6.44562V2.93445C22.1117 2.38739 21.9193 1.86212 21.5755 1.47235C21.2457 1.09515 20.786 0.865234 20.2804 0.865234C19.267 0.865234 18.4475 1.79156 18.4475 2.93445V5.30054L18.2576 5.24023L17.742 5.07733L17.2723 4.93225L17.2583 4.92773H17.2483L13.6846 3.84961C13.6493 3.83929 13.6122 3.84076 13.5777 3.85376C13.5432 3.86682 13.5129 3.89087 13.4906 3.92297C13.4682 3.95502 13.4548 3.99377 13.452 4.0343C13.4492 4.07483 13.4571 4.11542 13.4747 4.151L14.0443 5.32507C14.0765 5.4176 14.1185 5.51007 14.1616 5.60474C14.1881 5.66309 14.215 5.72223 14.2402 5.78265C14.3355 5.9967 14.4274 6.21246 14.516 6.42999C14.5978 6.62866 14.6824 6.82587 14.7699 7.02155C14.8037 7.10571 14.838 7.19073 14.8728 7.27679C15.0271 7.65881 15.1896 8.06122 15.3495 8.49475C15.4834 8.84967 15.6153 9.20233 15.7333 9.57065C16.0657 10.533 16.3612 11.5109 16.6187 12.5015C16.6841 12.7269 16.736 12.9458 16.7884 13.1672C16.8113 13.2638 16.8343 13.3608 16.8585 13.4591L16.8945 13.6376C17.0029 14.1039 17.0922 14.5753 17.1623 15.0506C17.2179 15.3631 17.2613 15.6781 17.2923 15.9948C17.3361 16.3466 17.3667 16.7004 17.3842 17.0551C17.4122 17.3788 17.4242 17.718 17.4242 18.0417C17.4242 18.8676 17.3582 19.6645 17.2023 20.4145C17.1484 20.6355 17.0944 20.8698 17.0284 21.093C16.9806 21.2842 16.918 21.4754 16.8528 21.6742C16.8282 21.7493 16.8033 21.8256 16.7786 21.9033L16.7559 21.9712C16.7097 22.1098 16.6631 22.2495 16.6047 22.3877C16.2749 23.2716 15.8652 24.1534 15.4434 24.9792C14.8238 26.2047 14.2002 27.2784 13.7645 27.9703C13.7391 28.013 13.714 28.0536 13.6897 28.0929C13.6568 28.1462 13.6254 28.197 13.5966 28.2471C13.5663 28.2966 13.5486 28.3543 13.5453 28.4142C13.542 28.474 13.5532 28.5337 13.5778 28.587C13.6024 28.6403 13.6394 28.6852 13.6849 28.7169C13.7304 28.7486 13.7828 28.766 13.8365 28.7672H18.4475V32.8342H13.7845C12.5313 32.8342 11.372 32.0418 10.8124 30.7717C10.5226 30.1355 10.4086 29.4369 10.4766 28.7516C10.4926 28.5485 10.3567 28.3543 10.1688 28.3543H0.748799C0.588901 28.3543 0.458984 28.4994 0.458984 28.6779V28.8944C0.458984 35.6043 5.31189 41.0441 11.3021 41.0441H28.2013C31.3683 41.0441 33.1662 37.8223 34.9335 34.6554C35.427 33.771 35.9182 32.8909 36.4361 32.0864C37.3655 30.6422 39.6 29.4971 40.2536 29.1846C40.3069 29.1586 40.3523 29.1159 40.3843 29.0616C40.4162 29.0073 40.4333 28.9438 40.4335 28.8788ZM2.97735 23.5616L2.83744 23.8071C2.80924 23.856 2.79344 23.9124 2.7917 23.9706C2.78997 24.0286 2.80238 24.0862 2.8276 24.137C2.85283 24.1879 2.88993 24.2301 2.93495 24.2593C2.97998 24.2885 3.03124 24.3034 3.08328 24.3026H11.7578C11.805 24.3032 11.8517 24.2906 11.8935 24.2661C11.9354 24.2415 11.9712 24.2058 11.9976 24.162C12.1119 23.9675 12.218 23.7672 12.3154 23.5616C13.0649 22.1553 13.7305 20.6352 13.9743 19.5102C14.544 16.7803 13.3268 12.3941 11.9177 8.86725C11.8963 8.81427 11.8626 8.7688 11.8199 8.73553C11.7773 8.70227 11.7274 8.68256 11.6756 8.67841C11.6237 8.67432 11.5718 8.68597 11.5254 8.7121C11.479 8.73828 11.4398 8.77802 11.412 8.82709L2.97735 23.5616Z" fill="black"/>
</svg>