<svg xmlns="http://www.w3.org/2000/svg" width="28" height="30" viewBox="0 0 28 30" fill="none">
    <path
        d="M4.49472 8.35016C4.13598 8.25552 3.83781 8.00642 3.68086 7.67024C3.52391 7.33406 3.52439 6.94553 3.68217 6.60974L6.45038 0.718482C6.65667 0.27946 7.09831 -0.000597901 7.58338 9.58523e-07C8.06845 0.000602022 8.50939 0.281752 8.71459 0.721283L9.93576 3.33695C9.97943 3.31979 10.0245 3.30491 10.0709 3.29248C17.3172 1.35083 24.7656 5.65113 26.7072 12.8975C28.6489 20.1438 24.3486 27.5921 17.1022 29.5338C9.85589 31.4754 2.40756 27.1751 0.465907 19.9288C-0.151528 17.6245 -0.137638 15.2961 0.40314 13.1313C0.570472 12.4615 1.24914 12.0541 1.91898 12.2214C2.58882 12.3888 2.99619 13.0674 2.82886 13.7373C2.38832 15.5008 2.37618 17.3978 2.88097 19.2817C4.46523 25.1942 10.5426 28.703 16.4551 27.1187C22.3676 25.5345 25.8764 19.4571 24.2921 13.5446C22.7338 7.72872 16.8281 4.23867 11.0081 5.63391L12.2403 8.27301C12.4455 8.71254 12.3779 9.2311 12.0669 9.60336C11.7559 9.97562 11.2576 10.1344 10.7886 10.0106L4.49472 8.35016Z"
        fill="black" />
</svg>