<svg xmlns="http://www.w3.org/2000/svg" width="42" height="38" viewBox="0 0 42 38" fill="none">
    <path
        d="M27.9118 0.467195V0.458984H29.8261L30.5255 0.614993C30.9918 0.716276 31.4152 0.849007 31.7956 1.01323C32.176 1.17745 32.5441 1.36905 32.8999 1.588C33.2558 1.80694 33.5785 2.03004 33.8681 2.25719C34.1553 2.48164 34.413 2.71976 34.6412 2.97155C34.8669 3.22609 35.2191 3.29178 35.6977 3.16862C36.1763 3.04545 36.6916 2.87437 37.2438 2.65543C37.796 2.43648 38.3421 2.19015 38.882 1.91644C39.4219 1.64272 39.7508 1.46894 39.8686 1.39504C39.9839 1.31843 40.0453 1.27738 40.0526 1.27187L40.06 1.25956L40.0968 1.23903L40.1336 1.2185L40.1704 1.19797L40.2072 1.17745L40.2146 1.16513L40.2256 1.15692L40.2367 1.14871L40.244 1.13639L40.2808 1.12408L40.3177 1.11586L40.3103 1.17745L40.2993 1.23903L40.2808 1.30061L40.2624 1.36219L40.244 1.40325L40.2256 1.4443L40.2072 1.50589C40.195 1.54694 40.1827 1.60167 40.1704 1.67011C40.1581 1.73855 40.0416 2.01222 39.8207 2.49121C39.5998 2.9702 39.3237 3.456 38.9924 3.94866C38.6611 4.44132 38.3642 4.81353 38.1016 5.06536C37.8365 5.3199 37.661 5.49779 37.5751 5.59907C37.4892 5.70306 37.385 5.79885 37.2622 5.88646L37.0782 6.02194L37.0413 6.04247L37.0045 6.06299L36.9972 6.07531L36.9861 6.08352L36.9751 6.09173L36.9677 6.10405L36.9309 6.12458L36.8941 6.1451L36.8868 6.15742L36.8757 6.16563L36.8646 6.17384L36.8573 6.18616L36.85 6.19848L36.8389 6.20669L36.8278 6.2149L36.8205 6.22721H37.0045L38.0353 5.98088C38.7225 5.81666 39.3789 5.61825 40.0048 5.38559L40.9987 5.01609L41.1091 4.97504L41.1643 4.95451L41.2012 4.93398L41.238 4.91345L41.2748 4.89293L41.3116 4.8724L41.3852 4.86008L41.4588 4.85187V4.93398L41.4404 4.94219L41.422 4.95451L41.4147 4.96683L41.4036 4.97504L41.3926 4.98325L41.3852 4.99556L41.3779 5.00788L41.3668 5.01609L41.3558 5.0243L41.3484 5.03662L41.3411 5.04894L41.33 5.05715L41.3116 5.0982L41.2932 5.13926L41.2821 5.14747C41.2772 5.15568 41.1214 5.3883 40.8146 5.8454C40.5079 6.30522 40.3422 6.53784 40.3177 6.54334C40.2931 6.55155 40.2588 6.5926 40.2146 6.6665C40.1729 6.74311 39.9127 7.04832 39.4342 7.58203C38.9556 8.11575 38.4869 8.59059 38.028 9.00664C37.5666 9.4254 37.3334 9.93994 37.3285 10.5503C37.3212 11.1579 37.2929 11.8449 37.2438 12.6113C37.1947 13.3776 37.1027 14.2056 36.9677 15.0951C36.8328 15.9846 36.6241 16.9905 36.3419 18.1126C36.0597 19.2348 35.7161 20.3296 35.3112 21.397C34.9062 22.4645 34.4829 23.4224 34.0411 24.2709C33.5994 25.1194 33.1944 25.8378 32.8263 26.4263C32.4582 27.0147 32.084 27.569 31.7035 28.089C31.3232 28.6091 30.8422 29.1948 30.2605 29.8462C29.6764 30.4948 29.3574 30.8507 29.3034 30.9136C29.247 30.9738 29.0065 31.1983 28.5818 31.5869C28.1597 31.9783 27.7057 32.3697 27.2198 32.7611C26.7363 33.1497 26.2921 33.4741 25.8872 33.7341C25.4822 33.9941 24.9939 34.291 24.422 34.625C23.8527 34.9616 23.2367 35.2736 22.574 35.561C21.9114 35.8484 21.212 36.1153 20.4757 36.3616C19.7395 36.6079 19.0278 36.7995 18.3406 36.9364C17.6535 37.0732 16.8742 37.1896 16.003 37.2853L14.6962 37.429V37.4496H12.3034V37.429L11.9904 37.4085C11.7819 37.3948 11.6101 37.3811 11.4751 37.3674C11.3401 37.3538 10.8309 37.2785 9.94735 37.1416C9.06385 37.0048 8.37056 36.8679 7.86744 36.7311C7.36436 36.5943 6.61582 36.3342 5.62188 35.951C4.62794 35.5679 3.77758 35.1806 3.07078 34.7892C2.36644 34.4005 1.92469 34.1542 1.74553 34.0502C1.56883 33.9489 1.37004 33.823 1.14916 33.6725L0.817852 33.4467L0.810526 33.4344L0.799445 33.4262L0.788402 33.418L0.781039 33.4056L0.744227 33.3851L0.707414 33.3646L0.700088 33.3523L0.689008 33.3441L0.677964 33.3358L0.670602 33.3235L0.663276 33.3112L0.652195 33.303H0.633789V33.2209L0.670602 33.2291L0.707414 33.2414L0.87307 33.2619C0.983508 33.2756 1.28416 33.2961 1.77498 33.3235C2.26583 33.3509 2.78732 33.3509 3.33951 33.3235C3.8917 33.2961 4.45618 33.2346 5.03288 33.1388C5.60962 33.043 6.29065 32.8788 7.07598 32.6461C7.86133 32.4135 8.58286 32.137 9.24059 31.8168C9.89585 31.4939 10.3621 31.253 10.6395 31.0942C10.9143 30.9382 11.334 30.6481 11.8984 30.2239L12.7451 29.5875L12.7525 29.5752L12.7635 29.567L12.7746 29.5588L12.7819 29.5465L12.7893 29.5341L12.8003 29.5259L12.8114 29.5177L12.8187 29.5054L12.8555 29.4931L12.8924 29.4849L12.8997 29.4438L12.9108 29.4028L12.9218 29.3946L12.9292 29.3822L12.6347 29.3617C12.4383 29.348 12.2481 29.3343 12.0641 29.3207C11.88 29.307 11.5917 29.2454 11.199 29.1359C10.8063 29.0264 10.383 28.8622 9.92894 28.6433C9.47494 28.4243 9.03319 28.1643 8.60369 27.8632C8.17424 27.5622 7.86376 27.3117 7.67234 27.1119C7.48338 26.9148 7.23795 26.6357 6.93609 26.2744C6.63669 25.9104 6.37654 25.5367 6.15566 25.1536C5.93479 24.7704 5.72374 24.3283 5.52253 23.8275L5.21694 23.0803L5.19854 23.0187L5.18013 22.9571L5.16909 22.9161L5.16173 22.875L5.21694 22.8832L5.27216 22.8956L5.6771 22.9571C5.94708 22.9982 6.37043 23.0119 6.94713 22.9982C7.52387 22.9845 7.92266 22.9571 8.14354 22.9161C8.36441 22.875 8.4994 22.8476 8.54848 22.834L8.6221 22.8134L8.71413 22.7929L8.80616 22.7724L8.81353 22.7601L8.82457 22.7519L8.83565 22.7436L8.84298 22.7313L8.76935 22.7108L8.69573 22.6903L8.6221 22.6698L8.54848 22.6492L8.47485 22.6287C8.42578 22.615 8.3399 22.5876 8.21716 22.5466C8.09447 22.5055 7.76315 22.355 7.22323 22.095C6.68333 21.835 6.25384 21.5818 5.93479 21.3355C5.61494 21.0884 5.30997 20.8182 5.02184 20.5267C4.7347 20.2311 4.41937 19.8506 4.07576 19.3853C3.73219 18.9201 3.42543 18.3795 3.15545 17.7637C2.8855 17.1479 2.68303 16.5594 2.54804 15.9983C2.41359 15.4405 2.32489 14.8702 2.28303 14.2945L2.21673 13.4324L2.25354 13.4406L2.29035 13.4529L2.32716 13.4734L2.36398 13.494L2.40079 13.5145L2.4376 13.535L3.00819 13.8224C3.38862 14.014 3.86103 14.1782 4.42548 14.3151C4.98996 14.4519 5.32738 14.5272 5.43782 14.5409L5.60348 14.5614H5.93479L5.92746 14.5491L5.91638 14.5409L5.90534 14.5326L5.89798 14.5203L5.89065 14.508L5.87957 14.4998L5.86853 14.4916L5.86116 14.4793L5.82435 14.4587L5.78754 14.4382L5.78021 14.4259L5.76913 14.4177L5.75809 14.4095L5.75073 14.3972L5.71391 14.3766L5.6771 14.3561L5.66978 14.3438C5.66241 14.3383 5.55687 14.2507 5.35315 14.081C5.1519 13.9086 4.94085 13.6856 4.71998 13.4118C4.4991 13.1381 4.27823 12.8507 4.05735 12.5497C3.83607 12.2479 3.63898 11.9251 3.46835 11.5849C3.29658 11.2428 3.11495 10.8076 2.92353 10.2793C2.73457 9.75384 2.591 9.22423 2.49282 8.69052C2.39468 8.1568 2.33946 7.62994 2.32716 7.1099C2.31491 6.58985 2.32716 6.1451 2.36398 5.77561C2.40079 5.40611 2.47441 4.98871 2.58485 4.52343C2.69529 4.05815 2.85483 3.56549 3.06341 3.04545L3.37632 2.26541L3.39473 2.20382L3.41313 2.14224L3.42421 2.13403L3.43154 2.12171L3.4389 2.1094L3.44994 2.10119L3.46103 2.1094L3.46835 2.12171L3.47571 2.13403L3.48676 2.14224L3.49784 2.15045L3.50516 2.16277L3.51253 2.17508L3.52357 2.1833L3.54198 2.22435L3.56038 2.26541L3.57146 2.27362L3.57879 2.28593L4.07576 2.90176C4.40707 3.31231 4.79975 3.77077 5.25376 4.2771C5.7078 4.78343 5.95934 5.04619 6.00841 5.06536C6.05752 5.08724 6.11885 5.15018 6.19248 5.25421C6.2661 5.35549 6.51153 5.59772 6.92873 5.98088C7.34596 6.36405 7.892 6.80884 8.56688 7.31517C9.2418 7.8215 9.99031 8.32102 10.8124 8.81368C11.6346 9.30634 12.5181 9.75109 13.4629 10.148C14.4078 10.5448 15.0704 10.8048 15.4508 10.928C15.8312 11.0512 16.4816 11.2085 17.4019 11.4001C18.3222 11.5918 19.0155 11.7149 19.4818 11.7696C19.9481 11.8244 20.2671 11.8559 20.4389 11.8641L20.6966 11.8723L20.6893 11.8107L20.6782 11.7491L20.6046 11.2359C20.5555 10.8938 20.5309 10.4148 20.5309 9.799C20.5309 9.18318 20.5739 8.61526 20.6598 8.09522C20.7457 7.57517 20.8745 7.04832 21.0463 6.5146C21.2181 5.98088 21.3862 5.55252 21.5506 5.22958C21.7176 4.90935 21.936 4.54396 22.2059 4.13341C22.4759 3.72286 22.8256 3.29864 23.2551 2.8607C23.6846 2.42277 24.1754 2.03275 24.7276 1.69063C25.2798 1.34852 25.789 1.08848 26.2553 0.91059C26.7216 0.732698 27.1143 0.616348 27.4333 0.561622C27.7523 0.506896 27.9118 0.475406 27.9118 0.467195Z"
        fill="black" />
</svg>